<?xml version="1.0" encoding="utf-8"?>
<!-- Generator: Adobe Illustrator 24.1.0, SVG Export Plug-In . SVG Version: 6.00 Build 0)  -->
<svg version="1.1" id="a661a32f-c611-43a1-9e61-6cb14e85c52e"
	 xmlns="http://www.w3.org/2000/svg" xmlns:xlink="http://www.w3.org/1999/xlink" x="0px" y="0px" viewBox="0 0 1004.3 711.9"
	 style="enable-background:new 0 0 1004.3 711.9;" xml:space="preserve">
<style type="text/css">
	.st0{fill:#070707;}
	.st1{fill:#E50914;}
	.st2{fill:#B1060F;}
	.st3{fill:#131313;}
	.st4{fill:#FFB8B8;}
	.st5{fill:#2F2E41;}
	.st6{fill:#3F3D56;}
	.st7{opacity:0.1;enable-background:new    ;}
</style>
<rect x="713.7" y="564.6" class="st0" width="267.1" height="1.9"/>
<rect x="784.9" y="601.2" class="st1" width="219.3" height="1.9"/>
<rect x="838.3" y="231.2" class="st0" width="1.9" height="335.2"/>
<ellipse class="st2" cx="839.6" cy="454.3" rx="36.6" ry="83.4"/>
<ellipse class="st0" cx="839.6" cy="264" rx="36.6" ry="83.4"/>
<path class="st0" d="M840.5,195.9l-1.8-0.5c0.1-0.4,11.1-38.1-7-62.5c-10.2-13.7-27.8-20.7-52.1-20.7v-1.9c25,0,43,7.2,53.6,21.5
	C851.9,156.8,840.6,195.5,840.5,195.9z"/>
<circle class="st1" cx="779.6" cy="111.3" r="23.4"/>
<path class="st2" d="M756.3,540.4H732V516h24.4V540.4z M733.8,538.5h20.6v-20.6h-20.6V538.5z"/>
<path class="st1" d="M170.9,493.5c0,63-37.4,85.1-83.6,85.1c-1.1,0-2.1,0-3.2,0c-2.1,0-4.3-0.1-6.4-0.3
	C36,575.3,3.5,552.2,3.5,493.6c0-60.7,77.5-137.3,83.3-142.9c0,0,0,0,0,0c0.2-0.2,0.3-0.3,0.3-0.3S170.9,430.5,170.9,493.5z"/>
<path class="st3" d="M84.2,569l30.6-42.8l-30.7,47.5l-0.1,4.9c-2.1,0-4.3-0.1-6.4-0.3l3.3-63.1l0-0.5l0.1-0.1l0.3-6l-30.8-47.6
	l30.9,43.1l0.1,1.3l2.5-47.6l-26.4-49.2l26.7,40.8l2.5-98.8l0-0.3l0,0.3l-0.4,77.9l26.2-30.9l-26.3,37.6l-0.7,42.7l24.5-41
	l-24.6,47.2l-0.4,23.7l35.5-57L85,516.2L84.2,569z"/>
<rect x="3.6" y="577.6" class="st3" width="158.4" height="1.9"/>
<rect x="193.6" y="15.9" class="st3" width="431.2" height="1.9"/>
<circle class="st1" cx="322.4" cy="17.8" r="17.8"/>
<path class="st1" d="M14.3,363.2c-6.2,0-11.2-5-11.2-11.2s5-11.2,11.2-11.2c6.2,0,11.2,5,11.2,11.2
	C25.6,358.2,20.6,363.2,14.3,363.2z M14.3,342.6c-5.2,0-9.4,4.2-9.4,9.4c0,5.2,4.2,9.4,9.4,9.4s9.4-4.2,9.4-9.4
	C23.7,346.8,19.5,342.6,14.3,342.6z"/>
<path class="st1" d="M174.1,321h-24.4v-24.4h24.4V321z M151.7,319.1h20.6v-20.6h-20.6L151.7,319.1z"/>
<ellipse class="st3" cx="417.5" cy="645.3" rx="417.5" ry="9.7"/>
<ellipse class="st1" cx="417.5" cy="677.4" rx="289" ry="6.7"/>
<ellipse class="st3" cx="417.6" cy="706.5" rx="235.8" ry="5.5"/>
<path class="st4" d="M623,468.4l-1.4,28.8l65.9,22c0,0-3.4-36.4-1.4-39.8L623,468.4z"/>
<polygon class="st4" points="516,596.7 509.8,620.7 538.6,620.7 538.6,596.7 "/>
<polygon class="st5" points="665.6,603.1 678.6,607.7 685.5,590.5 673.8,581.3 "/>
<path class="st5" d="M688.7,573.2c0,0,19.4-2.6,19.4,13.9c0,16.5,2.7,57-24.7,52.2c0,0-12.4,1.4-7.5-13c0,0,4.9-5.9,3.1-9.5
	c-1.8-3.6-12.1-6.3-10.7-8.4c1.4-2.1,16.5-18.5,16.5-18.5L688.7,573.2z"/>
<path class="st5" d="M688.9,515.7l-67.3-23.3l-4.1,16.5c0,0-100.9-58.3-107.1-18.5c0,0-5.5,32.3,2.7,74.8l0.7,34.3
	c0,0,17.2,4.1,25.4,0.7l0.7-37.1c0,0,6.9-24,3.4-42.5c0,0,51.5,40.5,74.8,45.3c0,0-81.7,63.1-72.1,83c9.6,19.9,21.3,23.3,36.4,19.9
	c10.4-2.4,57-39.9,84.9-63.1c19.4-15.9,30.2-40.1,28.9-65.2C695.9,531.4,693.8,522.6,688.9,515.7z"/>
<path class="st5" d="M514.6,611.8c0,0-0.7-8.2-4.8-4.8s-18.5,16.5-18.5,16.5s-52.2,5.7-20.6,18.8c14.4,2.2,29.2,0.3,42.5-5.5
	c0,0,35.1,9,34.4,0.3c-0.7-8.7-9-23.3-9-23.3s-9.6,7-20.6-2.6L514.6,611.8z"/>
<circle class="st4" cx="650.5" cy="364.1" r="25.4"/>
<path class="st4" d="M671.1,365.5c0,0,4.1,20.6,11.7,25.4l-41.9,49.4l-15.8-15.1l11.7-20.6c0,0,13-7.5,8.9-17.8L671.1,365.5z"/>
<path class="st4" d="M686.1,392.9c0,0,30.2,6.2,33.6,26.1s-3.4,56.3-3.4,56.3l-14.4,107.1c0,0-0.7,45.3-18.5,37.7
	c-17.8-7.5,4.8-41.9,4.8-41.9l6.2-67.3c0,0,2.7-57-2.7-63.8l-22-6.9C669.7,440.3,674.5,395,686.1,392.9z"/>
<path class="st4" d="M636.7,404.6c0,0-20.6-0.7-33.6,15.8s-44.6,28.8-44.6,28.8l-78.9,30.9c0,0-14.4-25.4-23.3-16.5
	s16.5,31.6,28.1,28.8s82.3-24,82.3-24L623,443L636.7,404.6z"/>
<path class="st6" d="M681.7,389.2c0,0-26.4,35.3-38.1,34.6s-3.8-21.5-3.8-21.5l-8.2,2.1c0,0-11.3,21.5-12.7,22.9
	c0,0-16.5,26.8,2.1,32.9l0.7,14.4c0,0,46-2.1,65.9,8.2l4.1-35.7c0,0-26.1-13-11.7-38.4c0,0,5.1-13.3,10.6-14.7L681.7,389.2z"/>
<path class="st7" d="M688.5,577.9l-105,76.9C583.6,654.7,689.2,592.3,688.5,577.9z"/>
<ellipse class="st4" cx="676.9" cy="362" rx="2" ry="4.5"/>
<path class="st2" d="M622.5,350.6c0,0-7.1-48.1,43.7-33.2c0,0,36-7.3,48.7,37.6l12.9,47.1l-5.9-3.1l-2.6,6l-9.4,2.6l-4.2-8l-1.8,9.8
	l-77.3,9.2c0,0,34.3-21.2,34.2-58l-6.5,7.1L622.5,350.6z"/>
<path id="bf2f48d4-d76c-43f7-acff-29e29e6968d0" class="st2" d="M448.3,153.2l-0.2,109.6L448,372.3l-9-25.4v-0.1l-11.7,243.9
	c11.5,32.3,17.6,49.6,17.7,49.7s6.6,0.5,14.5,0.8c23.9,1.2,53.5,3.7,76,6.5c5.2,0.7,9.7,1,10,0.7s0.4-111.8,0.3-247.9l-0.2-247.4
	L448.3,153.2L448.3,153.2z"/>
<path id="bfab83f1-a1e5-4c79-84d8-61287c2d74b0" class="st2" d="M272.6,152.8v247.7c0,136.2,0.1,247.8,0.3,248
	c0.2,0.2,8.6-0.7,18.8-1.8s24.2-2.5,31.2-3.1c10.7-0.9,42.8-2.9,46.4-3c1.1,0,1.2-5.5,1.3-104.9l0.2-104.9l7.8,21.9
	c1.2,3.4,1.6,4.4,2.7,7.8L393,216.6c-2.5-7-1.2-3.3-4-11.3c-9.5-26.9-17.6-49.7-17.9-50.7l-0.7-1.8L272.6,152.8L272.6,152.8z"/>
<path id="ed196cf9-a066-4498-9a77-a0c0f8894188" class="st1" d="M272.6,152.8L370.7,431v-0.1l7.8,21.9
	c43.1,122,66.3,187.5,66.4,187.6c0.1,0.1,6.6,0.5,14.5,0.8c23.9,1.2,53.5,3.7,76,6.5c5.2,0.7,9.7,1,9.9,0.7L448,372.2v0.1l-9-25.4
	c-8.8-24.8-14.7-41.5-50.1-141.5c-9.5-26.9-17.6-49.7-17.9-50.7l-0.7-1.8h-48.8L272.6,152.8L272.6,152.8z"/>
</svg>
